<svg width="179" height="32" viewBox="0 0 179 32" fill="none" xmlns="http://www.w3.org/2000/svg">
<path d="M12.0471 31.5294H3.2V15.0588H0V7.81177H3.38824C4.32941 3.34118 8.70588 0 16.4706 0H18.3529V6.30588H15.0588C12.6118 6.30588 11.4353 6.54118 11.4824 7.81177H18.3529V15.0588H12.0471V31.5294Z" fill="white"/>
<path d="M29.5658 5.64706H20.7188V0H29.5658V5.64706ZM29.5658 31.5294H20.7188V7.81177H29.5658V31.5294Z" fill="white"/>
<path d="M41.7092 31.5294H32.8621V7.81177H41.1445V15.0118H41.6151C42.1327 11.0588 44.721 7.34118 51.0739 7.34118C57.4739 7.34118 60.4857 11.2 60.4857 16.3294V31.5294H51.6386V19.5765C51.6386 16.2824 50.4151 15.2471 46.5562 15.2471C42.6504 15.2471 41.7092 16.2353 41.7092 19.2941V31.5294Z" fill="white"/>
<path d="M71.2423 32C65.8776 32 62.8658 29.5529 62.8658 25.5059C62.8658 22.1647 65.1717 19.7647 70.5364 19.2471L80.1835 18.3059V17.8353C80.1835 15.4353 79.1482 15.0588 75.9952 15.0588C73.0776 15.0588 72.1835 15.6235 72.1835 17.6V17.7882H63.3364V17.6941C63.3364 11.3882 68.607 7.34118 76.654 7.34118C84.9364 7.34118 88.9364 11.3882 88.9364 18.0235V31.5294H80.654V26.5412H80.1835C79.2893 29.8824 76.3717 32 71.2423 32ZM71.7599 24.9412C71.7599 25.6941 72.5129 25.8353 73.8776 25.8353C78.1599 25.8353 79.9011 25.3176 80.1364 23.2L72.8893 24.0471C72.0893 24.1412 71.7599 24.4235 71.7599 24.9412Z" fill="white"/>
<path d="M100.876 31.5294H92.0294V7.81177H100.312V15.0118H100.782C101.3 11.0588 103.888 7.34118 110.241 7.34118C116.641 7.34118 119.653 11.2 119.653 16.3294V31.5294H110.806V19.5765C110.806 16.2824 109.582 15.2471 105.724 15.2471C101.818 15.2471 100.876 16.2353 100.876 19.2941V31.5294Z" fill="white"/>
<path d="M136.057 32C127.633 32 122.268 27.3412 122.268 19.6706C122.268 11.9529 127.633 7.34118 136.057 7.34118C144.151 7.34118 149.327 11.4824 149.327 17.8353V18.5882H140.527V18.2118C140.527 15.7647 138.739 15.2471 135.868 15.2471C132.621 15.2471 131.068 15.9529 131.068 19.6706C131.068 23.3412 132.621 24.0471 135.868 24.0471C138.739 24.0471 140.527 23.5765 140.527 21.1294V20.7059H149.327V21.5059C149.327 27.8118 144.151 32 136.057 32Z" fill="white"/>
<path d="M165.385 32C157.338 32 151.691 28.5647 151.691 19.6706C151.691 11.9529 157.291 7.34118 165.197 7.34118C173.385 7.34118 178.609 11.4353 178.609 19.0588C178.609 19.8588 178.562 20.4706 178.468 21.3176H159.879C160.021 24.1882 161.291 24.9882 165.056 24.9882C168.632 24.9882 169.574 24.3765 169.574 22.9647V22.4471H178.421V23.0118C178.421 28.2824 173.385 32 165.385 32ZM165.009 14.1176C161.762 14.1176 160.397 14.8235 160.021 16.8471H170.044C169.715 14.8235 168.303 14.1176 165.009 14.1176Z" fill="white"/>
</svg>
